<?xml version="1.0" encoding="UTF-8" standalone="no"?>
<svg
   data-name="Layer 1"
   width="783.79"
   height="812"
   viewBox="0 0 783.79 812"
   version="1.1"
   id="svg243"
   sodipodi:docname="caja-pendiente.svg"
   inkscape:version="1.2.2 (732a01da63, 2022-12-09)"
   xmlns:inkscape="http://www.inkscape.org/namespaces/inkscape"
   xmlns:sodipodi="http://sodipodi.sourceforge.net/DTD/sodipodi-0.dtd"
   xmlns="http://www.w3.org/2000/svg"
   xmlns:svg="http://www.w3.org/2000/svg"
   xmlns:rdf="http://www.w3.org/1999/02/22-rdf-syntax-ns#"
   xmlns:cc="http://creativecommons.org/ns#"
   xmlns:dc="http://purl.org/dc/elements/1.1/">
  <defs
     id="defs247" />
  <sodipodi:namedview
     id="namedview245"
     pagecolor="#ffffff"
     bordercolor="#000000"
     borderopacity="0.25"
     inkscape:showpageshadow="2"
     inkscape:pageopacity="0.0"
     inkscape:pagecheckerboard="0"
     inkscape:deskcolor="#d1d1d1"
     showgrid="false"
     inkscape:zoom="0.70884842"
     inkscape:cx="352.68471"
     inkscape:cy="435.9183"
     inkscape:window-width="1920"
     inkscape:window-height="1017"
     inkscape:window-x="1912"
     inkscape:window-y="-8"
     inkscape:window-maximized="1"
     inkscape:current-layer="svg243" />
  <title
     id="title129">xmas surprise</title>
  <polygon
     points="728.72 0 721.41 7.04 641.89 83.67 507.08 213.58 513.43 769.66 0.67 643.42 0.67 275.37 194.1 52.39 728.72 0"
     fill="#373e46"
     id="polygon131" />
  <polygon
     points="728.72 0 721.41 7.04 641.89 83.67 507.08 213.58 513.43 769.66 0.67 643.42 0.67 275.37 194.1 52.39 728.72 0"
     opacity="0.1"
     id="polygon133"
     style="fill:#4d4d4d" />
  <polygon
     points="783.79 353.28 769.02 730.73 239.77 811.33 0.67 643.42 0.67 280.74 507.08 213.58 783.79 353.28"
     fill="#373e46"
     id="polygon135" />
  <polygon
     points="783.12 353.28 768.34 730.73 239.1 811.33 0 643.42 0 280.74 506.41 213.58 783.12 353.28"
     fill="#373e46"
     id="polygon137"
     style="fill:#808080" />
  <polygon
     points="239.77 421.78 239.77 811.33 0.67 643.42 0.67 280.98 239.77 421.78"
     opacity="0.1"
     id="polygon139" />
  <polygon
     points="721.41 7.04 641.89 83.67 258.58 126.27 190.07 59.1 721.41 7.04"
     opacity="0.1"
     id="polygon141" />
  <polygon
     points="507.08 213.58 512.45 773.72 769.02 730.73 783.79 353.28 507.08 213.58"
     opacity="0.1"
     id="polygon143" />
  <polygon
     points="783.79 353.28 680.36 343.87 431.91 220.86 507.08 213.58 783.79 353.28"
     fill="#373e46"
     id="polygon145" />
  <polygon
     points="194.1 52.39 262.61 119.55 722 68.51 728.72 0 194.1 52.39"
     fill="#373e46"
     id="polygon147"
     style="fill:#666666" />
  <polygon
     points="783.12 355.29 777.01 486.53 774.54 539.56 765.66 730.06 236.41 812 236.41 421.11 783.12 355.29"
     fill="#373e46"
     id="polygon213"
     style="fill:#808080" />
  <polygon
     points="0.67 280.74 102.66 267.21 317.68 382.83 239.77 421.78 0.67 280.74"
     fill="#373e46"
     id="polygon215" />
  <polygon
     points="0.67 280.74 102.66 267.21 317.68 382.83 239.77 421.78 0.67 280.74"
     opacity="0.05"
     id="polygon217" />
  <polygon
     points="777.01 486.53 774.54 539.56 236.41 594.89 0.67 487.51 0.67 435.89 236.41 538.79 777.01 486.53"
     fill="#a31d1e"
     id="polygon239"
     style="fill:#ffcc00" />
  <polygon
     points="236.41 538.79 236.41 594.89 0.67 487.51 0.67 435.89 236.41 538.79"
     opacity="0.1"
     id="polygon241" />
  <metadata
     id="metadata414">
    <rdf:RDF>
      <cc:Work
         rdf:about="">
        <dc:title>xmas surprise</dc:title>
      </cc:Work>
    </rdf:RDF>
  </metadata>
</svg>
