<!-- icon666.com - MILLIONS vector ICONS FREE --><svg id="Layer_35" enable-background="new 0 0 64 64" viewBox="0 0 64 64" xmlns="http://www.w3.org/2000/svg"><path d="m20 22c-2.21 0-4 1.79-4 4v-8c0-1.58.23-3.11.66-4.56.39.41.79.8 1.22 1.16.71.6 1.48 1.13 2.3 1.58l-.18.32z" fill="#fcd770" style="fill: rgb(56, 20, 11);"></path><path d="m48 18v8c0-1.1-.45-2.1-1.17-2.83-.73-.72-1.73-1.17-2.83-1.17 0-2.21-1.79-4-4-4h-12.83c-2.52 0-4.91-.65-6.99-1.82-.82-.45-1.59-.98-2.3-1.58-.43-.36-.83-.75-1.22-1.16-1.87-2.01-3.18-4.57-3.66-7.44h3.69c-.45-1.25-.69-2.6-.69-4h16c8.84 0 16 7.16 16 16z" fill="#fcd770" style="fill: rgb(56, 20, 11);"></path><path d="m16 62h-10c0-6.05 3.66-11.5 9.26-13.79l5.69-2.33.05.12-2 6 8 3-2 3 6 4z" fill="#aab2bd"></path><path d="m48 62h-15l6-4-2-3 8-3-2-6 .05-.12 5.69 2.33c2.8 1.15 5.12 3.08 6.73 5.49 1.61 2.4 2.53 5.28 2.53 8.3z" fill="#aab2bd"></path><path d="m37 55 2 3-6 4h-2l-6-4 2-3-8-3 2-6-.05-.12 4.37-1.78c.19.62.62 1.68 1.17 2.96 1.98 4.58 5.51 11.94 5.51 11.94s3.54-7.37 5.51-11.95c.55-1.27.97-2.33 1.17-2.95l4.37 1.78-.05.12 2 6z" fill="#e6e9ed"></path><path d="m37 47 .51.05c-1.97 4.58-5.51 11.95-5.51 11.95s-3.53-7.36-5.51-11.94l.51-.06z" fill="#5d9cec" style="fill: rgb(227, 22, 33);"></path><g fill="#f0d0b4"><path d="m38.49 44.02.19.08c-.2.62-.62 1.68-1.17 2.95l-.51-.05h-10l-.51.06c-.55-1.28-.98-2.34-1.17-2.96l.19-.08c1.51-.62 2.49-2.08 2.49-3.71v-1.24c1.23.8 2.57 1.45 4 1.93 1.43-.48 2.77-1.13 4-1.93v1.24c0 1.63.98 3.09 2.49 3.71z" fill="#f0d0b4"></path><path d="m48 26c0 2.21-1.79 4-4 4h-.93-.01c.61-1.78.94-3.69.94-5.65v-2.35c1.1 0 2.1.45 2.83 1.17.72.73 1.17 1.73 1.17 2.83z" fill="#f0d0b4"></path><path d="m44 22v2.35c0 1.96-.33 3.87-.94 5.65-1.26 3.72-3.74 6.92-7.06 9.07-1.23.8-2.57 1.45-4 1.93-1.43-.48-2.77-1.13-4-1.93-1.84-1.19-3.42-2.71-4.69-4.46-1.01-1.4-1.81-2.96-2.37-4.61-.61-1.78-.94-3.69-.94-5.65v-2.35-5.5l.18-.32c2.08 1.17 4.47 1.82 6.99 1.82h12.83c2.21 0 4 1.79 4 4z" fill="#f0d0b4"></path><path d="m20 24.35c0 1.96.33 3.87.94 5.65h-.01-.93c-1.1 0-2.1-.45-2.83-1.17-.72-.73-1.17-1.73-1.17-2.83 0-2.21 1.79-4 4-4z" fill="#f0d0b4"></path></g><path d="m49.123 47.288-10.259-4.197c-1.132-.463-1.864-1.553-1.864-2.777v-.718c3.077-2.126 5.427-5.126 6.759-8.596h.241c2.757 0 5-2.243 5-5v-8c0-9.374-7.626-17-17-17h-17v1c0 1.034.134 2.035.363 3h-3.544l.194 1.165c.482 2.89 1.746 5.465 3.545 7.542-.363 1.396-.558 2.835-.558 4.293v8c0 2.757 2.243 5 5 5h.241c1.332 3.471 3.682 6.47 6.759 8.596v.718c0 1.224-.732 2.313-1.864 2.776l-10.259 4.197c-6 2.456-9.877 8.231-9.877 14.713v1h54v-1c0-6.482-3.877-12.257-9.877-14.712zm-5.376 4.114-8.278 3.104 2.145 3.217-4.917 3.277h-.549l.753-1.567c.216-.448 4.829-10.06 6.366-14.016l2.876 1.177zm-23.494 0 1.603-4.808 2.877-1.177c1.534 3.94 6.15 13.567 6.365 14.016l.753 1.567h-.548l-4.916-3.277 2.145-3.217zm7.743-3.402h8.009c-1.299 2.932-2.985 6.523-4.005 8.675-1.019-2.153-2.705-5.745-4.004-8.675zm16.418-19.042c.379-1.482.586-3.025.586-4.607v-1.167c1.161.414 2 1.514 2 2.816 0 1.512-1.129 2.754-2.586 2.958zm-28.411-21.958c1.963 4.693 6.6 8 11.997 8h7v-2h-7c-5.729 0-10.448-4.401-10.955-10h14.955c8.271 0 15 6.729 15 15v4.026c-.608-.46-1.314-.79-2.092-.934-.429-2.324-2.462-4.092-4.908-4.092h-12.834c-6.158 0-11.42-4.139-12.933-10zm1.239 8.358c.558.472 1.137.92 1.758 1.308v4.435c-.743.152-1.416.482-2 .924v-4.025c0-.891.087-1.773.242-2.642zm-.242 10.642c0-1.302.839-2.402 2-2.816v1.167c0 1.582.207 3.125.586 4.607-1.457-.204-2.586-1.446-2.586-2.958zm4-1.649v-6.63c1.893.825 3.98 1.279 6.166 1.279h12.834c1.654 0 3 1.346 3 3v2.351c0 7.023-4.406 13.247-11 15.591-6.594-2.344-11-8.567-11-15.591zm7.964 16.445c.864.45 1.772.837 2.719 1.152l.317.106.316-.105c.947-.316 1.855-.702 2.719-1.152.152 1.59 1.037 3.001 2.4 3.812-.153.4-.343.867-.564 1.392h-9.743c-.222-.525-.412-.993-.565-1.392 1.364-.812 2.249-2.223 2.401-3.813zm-13.33 8.344 3.781-1.547-1.668 5.005 7.722 2.896-1.855 2.783 4.083 2.723h-10.697v-6h-2v6h-7.965c.373-5.255 3.665-9.842 8.599-11.86zm33.366 11.86v-6h-2v6h-10.697l4.084-2.723-1.855-2.783 7.722-2.896-1.668-5.005 3.781 1.547c4.934 2.019 8.226 6.605 8.599 11.86z" fill="#000000"></path><circle cx="38" cy="23" r="1" fill="#000000"></circle><circle cx="26" cy="23" r="1" fill="#000000"></circle><path d="m36 32h-2c0 1.103-.897 2-2 2s-2-.897-2-2h-2c0 2.206 1.794 4 4 4s4-1.794 4-4z" fill="#000000"></path></svg>