<!-- icon666.com - MILLIONS vector ICONS FREE --><svg id="Capa_1" enable-background="new 0 0 512 512" viewBox="0 0 512 512" xmlns="http://www.w3.org/2000/svg"><g><path d="m387.006 178.5h-131.006l-10 200 131.006-10z" fill="#e1bb78"></path><path d="m60.006 188.5v45l10 15-10 15v29.627l10 15-10 15v45.373l195.994 10v-200z" fill="#edd7b0"></path><path d="m288.574 329.434c7.371-3.661 12.697-6.307 25.027-6.307 12.331 0 17.658 2.646 25.03 6.307 8.466 4.205 19.003 9.438 38.374 9.438l10-15-10-15c-12.331 0-17.658-2.646-25.03-6.307-8.466-4.205-19.003-9.438-38.374-9.438-19.37 0-29.906 5.233-38.373 9.438-6.098 3.029-10.807 5.357-19.229 6.073l-10 15 10 15.056c15.742-.921 24.998-5.496 32.575-9.26z" fill="#c9885b"></path><path d="m387.006 233.5h-131.006l-10 15 10 15h131.006z" fill="#c9885b"></path><path d="m225.174 302.566c-8.467-4.205-19.003-9.438-38.373-9.438-19.369 0-29.905 5.233-38.371 9.438-7.371 3.661-12.696 6.307-25.025 6.307s-17.655-2.646-25.026-6.307c-8.466-4.205-19.002-9.438-38.372-9.438v30c12.329 0 17.655 2.646 25.026 6.307 8.466 4.205 19.002 9.438 38.372 9.438 19.369 0 29.905-5.233 38.371-9.438 7.371-3.661 12.696-6.307 25.025-6.307 12.33 0 17.656 2.646 25.027 6.307 8.467 4.205 19.003 9.438 38.373 9.438 2.035 0 3.951-.07 5.799-.178v-30.056c-1.759.15-3.668.234-5.799.234-12.33 0-17.656-2.646-25.027-6.307z" fill="#e1bb78"></path><path d="m60.006 233.5h195.994v30h-195.994z" fill="#e1bb78"></path><path d="m328.436 173.5-45.176-64.243c9.419-15.887 26.729-25.757 45.176-25.757h52.5v37.5c0 28.949-23.552 52.5-52.5 52.5z" fill="#24b3b3"></path><path d="m183.577 173.5c-28.948 0-52.5-23.551-52.5-52.5v-37.5h52.5c18.445 0 35.755 9.869 45.175 25.756z" fill="#29cc95"></path><path d="m316.006 143.5c0-15.291-5.839-36.387-14.875-53.746-12.17-23.379-28.195-36.254-45.125-36.254-.002 0-.004 0-.006 0l-10 110h66.578c2.275-6.434 3.428-13.163 3.428-20z" fill="#d10050"></path><path d="m210.881 89.754c-9.036 17.359-14.875 38.455-14.875 53.746 0 6.835 1.153 13.564 3.429 20h56.565v-110c-16.927.003-32.951 12.878-45.119 36.254z" fill="#f37"></path><path d="m256 143.5-10 15 10 30h121.006v190l75-10v-225z" fill="#8c574d"></path><path d="m60.006 143.5v45h105.796v90c0 16.569 13.431 30 30 30 16.568 0 30-13.431 30-30v-90h30.198v-45z" fill="#c9885b"></path><path d="m256 368.5-10 40 266-10v-30z" fill="#cfd7e6"></path><path d="m256 368.5h-256v30l256 10z" fill="#e6ecf2"></path><path d="m256 458.5h196c33.084 0 60-26.916 60-60h-256l-10 30z" fill="#e6ecf2"></path><path d="m0 398.5c0 33.084 26.916 60 60 60h196v-60z" fill="#fff5f5"></path></g></svg>