<!-- icon666.com - MILLIONS vector ICONS FREE --><svg version="1.1" id="Layer_1" xmlns="http://www.w3.org/2000/svg" xmlns:xlink="http://www.w3.org/1999/xlink" x="0px" y="0px" viewBox="0 0 512 512" style="enable-background:new 0 0 512 512;" xml:space="preserve"><path style="fill:#A0C663;" d="M235.121,493.854l-10.933-66.422c0.062,0.002,0.119,0.018,0.18,0.018 c-2.873,0-5.629-2.317-6.12-5.147l-18.314-105.179H79.182l25.73,176.702c0.827,5.686,6.207,10.34,11.954,10.34h124.557 c0.991,0,1.97-0.147,2.917-0.405C239.771,502.523,235.894,498.546,235.121,493.854z"></path><path style="opacity:0.1;enable-background:new ;" d="M137.328,493.824l-25.73-176.702H79.182l25.73,176.702 c0.827,5.686,6.207,10.34,11.954,10.34h32.415C143.533,504.164,138.154,499.511,137.328,493.824z"></path><path style="fill:#EDEDD3;" d="M137.076,432.589c0,2.873-2.351,5.224-5.224,5.224h-47.02c-2.873,0-5.224-2.351-5.224-5.224v-55.38 c0-2.873,2.351-5.224,5.224-5.224h47.02c2.873,0,5.224,2.351,5.224,5.224V432.589z"></path><path style="opacity:0.1;enable-background:new ;" d="M101.355,432.589v-55.38c0-2.873,2.351-5.224,5.224-5.224H84.831 c-2.873,0-5.224,2.351-5.224,5.224v55.38c0,2.873,2.351,5.224,5.224,5.224h21.749C103.706,437.813,101.355,435.462,101.355,432.589z "></path><path style="fill:#D6D5D6;" d="M200.282,282.177l0.787,4.778l0,0l-6.838-41.545h-9.434c-5.747,0-10.449-4.702-10.449-10.449v-5.709 H115.55c-5.747,0-12.477,4.242-14.959,9.425l-18.59,38.852c-0.807,1.688-1.061,3.273-0.847,4.647h119.128V282.177z"></path><path style="fill:#554141;" d="M419.381,306.936h-0.974l10.126-61.526H194.231l10.126,61.526h-0.974 c-2.873,0-4.82,2.317-4.329,5.147l19.192,110.219c0.492,2.831,3.246,5.147,6.12,5.147c-0.061,0-0.118-0.016-0.18-0.018 l10.933,66.422c0.935,5.671,6.4,10.31,12.147,10.31h128.231c5.747,0,11.212-4.639,12.147-10.31l10.933-66.422 c-0.062,0.002-0.119,0.018-0.18,0.018c2.873,0,5.629-2.317,6.12-5.147l19.192-110.219 C424.202,309.252,422.255,306.936,419.381,306.936z"></path><path style="opacity:0.1;enable-background:new ;" d="M113.807,282.177c-0.213-1.374,0.04-2.959,0.847-4.647l18.59-38.852 c2.482-5.184,9.212-9.425,14.959-9.425h-32.654c-5.747,0-12.477,4.242-14.959,9.425L82,277.53c-0.807,1.688-1.061,3.273-0.847,4.647 H113.807z"></path><path style="fill:#E6E6E6;" d="M199.055,312.083c-0.492-2.831,1.456-5.147,4.329-5.147h0.974l-4.075-24.759H74.031 c-5.747,0-10.449,4.702-10.449,10.449v14.048c0,5.747,4.702,10.449,10.449,10.449h125.902L199.055,312.083z"></path><path style="opacity:0.1;enable-background:new ;" d="M96.131,306.673v-14.048c0-5.747,4.702-10.449,10.449-10.449H74.031 c-5.747,0-10.449,4.702-10.449,10.449v14.048c0,5.747,4.702,10.449,10.449,10.449h32.549 C100.833,317.122,96.131,312.42,96.131,306.673z"></path><g><path style="fill:#D2873C;" d="M194.231,245.41l10.126,61.526h57.947c9.902-16.592,28.168-27.731,49.08-27.731 c20.91,0,39.176,11.139,49.078,27.731h57.947l10.126-61.526H194.231z"></path><path style="fill:#D2873C;" d="M398.398,427.449h-174.03c-0.061,0-0.118-0.016-0.18-0.018l10.933,66.422 c0.935,5.671,6.4,10.31,12.147,10.31h128.231c5.747,0,11.212-4.639,12.147-10.31l10.933-66.422 C398.517,427.433,398.458,427.449,398.398,427.449z"></path></g><path style="fill:#965930;" d="M231.383,471.149l3.737,22.706c0.935,5.671,6.4,10.31,12.147,10.31h128.231 c5.747,0,11.212-4.639,12.147-10.31l3.737-22.706H231.383z"></path><polygon style="opacity:0.1;enable-background:new ;" points="236.774,306.936 226.647,245.41 194.231,245.41 204.357,306.936 "></polygon><path style="opacity:0.1;enable-background:new ;" d="M267.537,493.854l-10.93-66.405h-32.24c-0.061,0-0.118-0.016-0.18-0.018 l10.933,66.422c0.935,5.671,6.4,10.31,12.147,10.31h32.416C273.937,504.164,268.471,499.525,267.537,493.854z"></path><path style="fill:#08B39B;" d="M419.381,306.936h-58.921c4.989,8.361,7.863,18.101,7.863,28.509c0,31.062-25.493,56.24-56.941,56.24 c-31.449,0-56.943-25.179-56.943-56.24c0-10.408,2.873-20.148,7.863-28.509h-58.921c-2.873,0-4.82,2.317-4.329,5.147l19.192,110.219 c0.492,2.831,3.246,5.147,6.12,5.147h174.031c2.873,0,5.629-2.317,6.12-5.147l19.192-110.219 C424.202,309.252,422.255,306.936,419.381,306.936z"></path><path style="opacity:0.1;enable-background:new ;" d="M251.082,422.302L231.89,312.083c-0.492-2.831,1.456-5.147,4.329-5.147 h-32.835c-2.873,0-4.82,2.317-4.329,5.147l19.192,110.219c0.492,2.831,3.246,5.147,6.12,5.147h32.835 C254.328,427.449,251.574,425.132,251.082,422.302z"></path><ellipse style="fill:#FBD33B;" cx="311.38" cy="335.445" rx="56.936" ry="56.24"></ellipse><path style="fill:#D6D5D6;" d="M422.592,197.064l-19.14-46.982c-2.169-5.323-8.644-9.677-14.391-9.677H233.708 c-5.747,0-12.222,4.354-14.391,9.677l-19.143,46.982H422.592z"></path><path style="opacity:0.1;enable-background:new ;" d="M232.717,197.064l19.143-46.982c2.169-5.323,8.644-9.677,14.391-9.677 h-32.543c-5.747,0-12.222,4.354-14.391,9.677l-19.143,46.982H232.717z"></path><path style="fill:#E6E6E6;" d="M448.418,234.961c0,5.747-4.702,10.449-10.449,10.449H184.795c-5.747,0-10.449-4.702-10.449-10.449 v-27.449c0-5.747,4.702-10.449,10.449-10.449h253.174c5.747,0,10.449,4.702,10.449,10.449V234.961z"></path><path style="opacity:0.1;enable-background:new ;" d="M206.89,234.961v-27.449c0-5.747,4.702-10.449,10.449-10.449h-32.543 c-5.747,0-10.449,4.702-10.449,10.449v27.449c0,5.747,4.702,10.449,10.449,10.449h32.543 C211.592,245.41,206.89,240.708,206.89,234.961z"></path><path d="M120.998,73.253h17.624h43.952h17.198c8.624,0,15.639,6.886,15.639,15.349c0,8.465-7.015,15.351-15.639,15.351h-19.908 c-4.329,0-7.837,3.508-7.837,7.837s3.508,7.837,7.837,7.837h19.908c17.265,0,31.312-13.917,31.312-31.024 c0-17.106-14.047-31.022-31.312-31.022h-17.198h-43.952h-17.624c-11.752,0-21.312-9.4-21.312-20.953s9.561-20.952,21.312-20.952 h21.014c4.329,0,7.837-3.508,7.837-7.837S146.341,0,142.012,0h-21.014c-20.394,0.001-36.986,16.432-36.986,36.627 C84.012,56.823,100.604,73.253,120.998,73.253z"></path><path d="M120.431,119.626h17.609c4.329,0,7.837-3.508,7.837-7.837s-3.508-7.837-7.837-7.837h-17.609 c-17.786,0-32.257,14.336-32.257,31.957s14.471,31.957,32.257,31.957h63.61c4.329,0,7.837-3.508,7.837-7.837 c0-4.329-3.508-7.837-7.837-7.837h-63.61c-9.144,0-16.584-7.305-16.584-16.284C103.847,126.932,111.287,119.626,120.431,119.626z"></path><path d="M297.276,326.532h28.212c4.328,0,7.837-3.508,7.837-7.837c0-4.329-3.509-7.837-7.837-7.837h-28.212 c-4.329,0-7.837,3.508-7.837,7.837C289.439,323.024,292.947,326.532,297.276,326.532z"></path><path d="M291.231,353.699h40.302c4.329,0,7.837-3.508,7.837-7.837c0-4.329-3.508-7.837-7.837-7.837h-40.302 c-4.329,0-7.837,3.508-7.837,7.837C283.394,350.191,286.902,353.699,291.231,353.699z"></path><path d="M437.969,189.227h-10.108l-17.153-42.103c-3.382-8.298-12.688-14.555-21.649-14.555h-155.35 c-8.96,0-18.266,6.257-21.649,14.556l-17.155,42.102h-10.108c-10.082,0-18.286,8.203-18.286,18.286v13.902h-50.961 c-8.771,0-18.24,5.966-22.029,13.879c0,0-18.645,38.982-18.674,39.045h-0.815c-10.082,0-18.286,8.203-18.286,18.286v14.048 c0,9.529,7.331,17.37,16.648,18.203l5.971,41c-3.933,2.254-6.594,6.485-6.594,11.333v55.38c0,7.202,5.859,13.061,13.061,13.061 h5.147l7.179,49.302c1.39,9.56,10.046,17.049,19.708,17.049h258.633c9.588,0,18.319-7.411,19.879-16.874l10.179-61.854 c3.426-2.06,5.97-5.531,6.682-9.627l19.193-110.221c0.631-3.635-0.327-7.287-2.628-10.023c-0.487-0.579-1.034-1.093-1.614-1.564 l7.997-48.591h2.783c10.082,0,18.286-8.203,18.286-18.286v-27.449C456.255,197.429,448.052,189.227,437.969,189.227z M107.658,242.061c1.18-2.463,5.161-4.973,7.891-4.973h51.096c1.06,9.082,8.789,16.158,18.151,16.158h2.783l3.471,21.093H92.214 L107.658,242.061z M93.95,364.148l-5.707-39.189h12.261v39.189H93.95z M112.667,492.694l-6.85-47.044h26.035 c7.202,0,13.061-5.859,13.061-13.061v-13.588c0-4.329-3.508-7.837-7.837-7.837c-4.329,0-7.837,3.508-7.837,7.837v10.976H87.443 v-50.155h13.061v8.882c0,4.329,3.508,7.837,7.837,7.837s7.837-3.508,7.837-7.837v-8.882h13.061v7.837 c0,4.329,3.508,7.837,7.837,7.837c4.329,0,7.837-3.508,7.837-7.837v-10.449c0-7.202-5.859-13.061-13.061-13.061h-15.673v-39.189 h17.569c4.329,0,7.837-3.508,7.837-7.837c0-4.329-3.508-7.837-7.837-7.837H74.031c-1.416,0-2.612-1.196-2.612-2.612v-14.048 c0-1.416,1.196-2.612,2.612-2.612H193.63l1.946,11.824c-0.58,0.471-1.127,0.985-1.614,1.564c-1.418,1.685-2.321,3.721-2.661,5.884 h-23.071c-4.329,0-7.837,3.508-7.837,7.837c0,4.329,3.508,7.837,7.837,7.837h25.114l17.182,98.684 c0.713,4.098,3.256,7.568,6.681,9.629c0,0,10.344,62.657,10.437,63.055H116.866C115.013,496.328,112.934,494.529,112.667,492.694z M384.728,463.312H356.31c-4.329,0-7.837,3.508-7.837,7.837c0,4.329,3.508,7.837,7.837,7.837h25.838l-2.237,13.594 c-0.311,1.892-2.498,3.748-4.415,3.748H247.268c-1.916,0-4.103-1.856-4.415-3.746l-2.238-13.596h81.213 c4.329,0,7.837-3.508,7.837-7.837c0-4.329-3.508-7.837-7.837-7.837h-83.791l-4.613-28.026h155.92L384.728,463.312z M397.032,419.612 H225.733l-18.255-104.84h42.605c-2.244,6.491-3.48,13.439-3.48,20.672c0,35.332,29.061,64.076,64.779,64.076 s64.777-28.745,64.777-64.076c0-7.233-1.236-14.181-3.48-20.672h42.605L397.032,419.612z M262.278,335.445 c0-26.69,22.029-48.403,49.106-48.403c27.076,0,49.104,21.713,49.104,48.403s-22.027,48.403-49.104,48.403 C284.306,383.847,262.278,362.134,262.278,335.445z M411.757,299.099h-47.065c-11.699-16.737-31.226-27.731-53.308-27.731 c-22.083,0-41.61,10.993-53.31,27.731h-47.065l-7.547-45.852h215.84L411.757,299.099z M440.581,234.961 c0,1.416-1.196,2.612-2.612,2.612H184.795c-1.416,0-2.612-1.196-2.612-2.612v-27.449c0-1.416,1.196-2.612,2.612-2.612h157.931 c4.329,0,7.837-3.508,7.837-7.837c0-4.329-3.508-7.837-7.837-7.837H211.829l14.745-36.187c0.969-2.376,4.569-4.798,7.135-4.798 h155.351c2.565,0,6.166,2.421,7.135,4.797l14.743,36.188h-34.774c-4.329,0-7.837,3.508-7.837,7.837c0,4.329,3.508,7.837,7.837,7.837 h61.806c1.416,0,2.612,1.196,2.612,2.612V234.961z"></path><path d="M253.086,158.011h-13.558c-4.329,0-7.837,3.508-7.837,7.837c0,4.329,3.508,7.837,7.837,7.837h13.558 c4.329,0,7.837-3.508,7.837-7.837C260.922,161.518,257.415,158.011,253.086,158.011z"></path></svg>