<!-- icon666.com - MILLIONS vector ICONS FREE --><svg version="1.1" id="Layer_1" xmlns="http://www.w3.org/2000/svg" xmlns:xlink="http://www.w3.org/1999/xlink" x="0px" y="0px" viewBox="0 0 512 512" style="enable-background:new 0 0 512 512;" xml:space="preserve"><g><rect x="324.992" y="95.592" style="fill:#ADABB1;" width="27.089" height="68.975"></rect><polygon style="fill:#ADABB1;" points="46.489,391.442 77.108,154.418 119.289,154.418 227.641,154.418 434.893,154.418 439.64,191.169 443.977,224.74 465.512,391.442 "></polygon></g><polygon style="fill:#FFEDAC;" points="193.155,83.311 227.642,83.311 227.642,257.935 119.289,257.935 119.289,83.311 155.62,83.311 "></polygon><rect x="98.971" y="257.935" style="fill:#78777E;" width="149.83" height="24.306"></rect><rect x="270.816" y="32.521" style="fill:#3C7BB8;" width="135.439" height="75.339"></rect><path style="fill:#78777E;" d="M144.866,391.442h359.48v36.082c0,28.694-23.261,51.956-51.956,51.956H59.609 c-28.694,0-51.956-23.261-51.956-51.956v-36.082h99.637H144.866z"></path><g><path style="opacity:0.2;fill:#2D2128;enable-background:new ;" d="M465.374,391.442L443.84,224.741l-4.337-33.572l-4.747-36.75 h-81.363l4.747,36.75l4.337,33.572l21.534,166.701h38.834v36.082c0,28.694-23.261,51.956-51.956,51.956h81.363 c28.694,0,51.956-23.261,51.956-51.956v-36.082H465.374z"></path><rect x="324.992" y="107.473" style="opacity:0.2;fill:#2D2128;enable-background:new ;" width="27.089" height="14.017"></rect></g><polygon style="fill:#4AA9E7;" points="334.515,107.86 301.73,107.86 342.556,32.521 375.341,32.521 "></polygon><path d="M248.805,274.587H98.973c-4.229,0-7.655,3.427-7.655,7.655s3.426,7.655,7.655,7.655h149.833 c4.229,0,7.655-3.427,7.655-7.655S253.034,274.587,248.805,274.587z"></path><path d="M504.345,383.787h-32.104l-20.673-160.028c-0.542-4.193-4.386-7.161-8.572-6.611c-4.193,0.541-7.153,4.38-6.612,8.572 l20.42,158.066H144.866c-4.229,0-7.655,3.427-7.655,7.655s3.426,7.655,7.655,7.655H465.48c0.007,0,0.014,0.001,0.021,0.001 c0.005,0,0.01-0.001,0.015-0.001h31.173v28.427c0,24.428-19.873,44.301-44.3,44.301H59.609c-24.427,0-44.3-19.873-44.3-44.301 v-28.427h31.173c0.005,0,0.01,0.001,0.015,0.001c0.007,0,0.014-0.001,0.021-0.001h60.771c4.229,0,7.655-3.427,7.655-7.655 s-3.426-7.655-7.655-7.655H55.196l28.641-221.713h27.796v88.208h-12.66c-4.229,0-7.655,3.427-7.655,7.655 c0,4.227,3.426,7.655,7.655,7.655h20.316h108.353h21.163c4.229,0,7.655-3.427,7.655-7.655c0-4.227-3.426-7.655-7.655-7.655h-13.508 v-88.208h192.866l3.886,30.076c0.499,3.86,3.792,6.675,7.582,6.675c0.327,0,0.658-0.021,0.991-0.064 c4.193-0.541,7.153-4.38,6.612-8.572l-4.747-36.75c-0.493-3.817-3.744-6.674-7.592-6.674h-75.161v-31.249h46.522 c4.229,0,7.655-3.427,7.655-7.655V32.521c0-4.227-3.426-7.655-7.655-7.655H270.814c-4.229,0-7.655,3.427-7.655,7.655v75.339 c0,4.227,3.426,7.655,7.655,7.655h46.522v31.249h-82.039V83.311c0-4.227-3.426-7.655-7.655-7.655h-34.487 c-4.229,0-7.655,3.427-7.655,7.655c0,4.227,3.426,7.655,7.655,7.655h26.833v63.433c0,0.006-0.001,0.013-0.001,0.019 s0.001,0.013,0.001,0.019v95.843h-93.043V90.966h28.676c4.229,0,7.655-3.427,7.655-7.655c0-4.227-3.426-7.655-7.655-7.655h-36.331 c-4.229,0-7.655,3.427-7.655,7.655v63.452H77.108c-3.849,0-7.099,2.857-7.592,6.674l-29.758,230.35H7.655 c-4.229,0-7.655,3.427-7.655,7.655v36.082c0,32.87,26.741,59.61,59.609,59.61h392.781c32.869,0,59.609-26.741,59.609-59.61v-36.082 C512,387.214,508.574,383.787,504.345,383.787z M278.469,40.176h120.132v60.03h-46.522h-27.089h-46.522V40.176z M344.424,115.515 v30.194h-11.779v-30.194H344.424z"></path><path d="M196.216,176.281h-46.557c-4.229,0-7.655,3.427-7.655,7.655s3.426,7.655,7.655,7.655h46.557 c4.229,0,7.655-3.427,7.655-7.655S200.444,176.281,196.216,176.281z"></path><path d="M196.216,145.708h-46.557c-4.229,0-7.655,3.427-7.655,7.655s3.426,7.655,7.655,7.655h46.557 c4.229,0,7.655-3.427,7.655-7.655S200.444,145.708,196.216,145.708z"></path><path d="M196.216,206.019h-46.557c-4.229,0-7.655,3.427-7.655,7.655c0,4.227,3.426,7.655,7.655,7.655h46.557 c4.229,0,7.655-3.427,7.655-7.655C203.87,209.447,200.444,206.019,196.216,206.019z"></path><path d="M295.926,238.122c4.229,0,7.655-3.427,7.655-7.655v-14.23c0-4.227-3.426-7.655-7.655-7.655s-7.655,3.427-7.655,7.655v14.23 C288.271,234.695,291.698,238.122,295.926,238.122z"></path><path d="M342.808,216.237c0-4.227-3.426-7.655-7.655-7.655c-4.228,0-7.655,3.427-7.655,7.655v14.23c0,4.227,3.426,7.655,7.655,7.655 c4.229,0,7.655-3.427,7.655-7.655V216.237z"></path><path d="M374.379,238.122c4.229,0,7.655-3.427,7.655-7.655v-14.23c0-4.227-3.426-7.655-7.655-7.655 c-4.228,0-7.655,3.427-7.655,7.655v14.23C366.724,234.695,370.151,238.122,374.379,238.122z"></path><path d="M288.271,272.162c0,4.227,3.426,7.655,7.655,7.655s7.655-3.427,7.655-7.655v-14.23c0-4.227-3.426-7.655-7.655-7.655 s-7.655,3.427-7.655,7.655V272.162z"></path><path d="M342.808,257.932c0-4.227-3.426-7.655-7.655-7.655c-4.228,0-7.655,3.427-7.655,7.655v14.23c0,4.227,3.426,7.655,7.655,7.655 c4.229,0,7.655-3.427,7.655-7.655V257.932z"></path><path d="M366.724,272.162c0,4.227,3.426,7.655,7.655,7.655c4.229,0,7.655-3.427,7.655-7.655v-14.23c0-4.227-3.426-7.655-7.655-7.655 c-4.228,0-7.655,3.427-7.655,7.655V272.162z"></path><path d="M288.271,313.856c0,4.227,3.426,7.655,7.655,7.655s7.655-3.427,7.655-7.655v-14.23c0-4.227-3.426-7.655-7.655-7.655 s-7.655,3.427-7.655,7.655V313.856z"></path><path d="M293.885,352.959h22.777c4.229,0,7.655-3.427,7.655-7.655s-3.426-7.655-7.655-7.655h-22.777 c-4.229,0-7.655,3.427-7.655,7.655S289.657,352.959,293.885,352.959z"></path><path d="M348.165,345.304c0,4.227,3.426,7.655,7.655,7.655h22.776c4.229,0,7.655-3.427,7.655-7.655s-3.426-7.655-7.655-7.655H355.82 C351.591,337.649,348.165,341.076,348.165,345.304z"></path><path d="M335.153,291.971c-4.228,0-7.655,3.427-7.655,7.655v14.23c0,4.227,3.426,7.655,7.655,7.655c4.229,0,7.655-3.427,7.655-7.655 v-14.23C342.808,295.399,339.382,291.971,335.153,291.971z"></path><path d="M366.724,313.856c0,4.227,3.426,7.655,7.655,7.655c4.229,0,7.655-3.427,7.655-7.655v-14.23c0-4.227-3.426-7.655-7.655-7.655 c-4.228,0-7.655,3.427-7.655,7.655V313.856z"></path><path d="M334.417,451.412c9.25,0,16.777-7.527,16.777-16.777s-7.526-16.777-16.777-16.777h-151.83 c-9.25,0-16.777,7.526-16.777,16.777c0,9.251,7.526,16.777,16.777,16.777H334.417z M181.12,434.634c0-0.795,0.672-1.468,1.468-1.468 h151.83c0.795,0,1.468,0.673,1.468,1.468c0,0.796-0.672,1.468-1.468,1.468h-151.83C181.792,436.103,181.12,435.43,181.12,434.634z"></path></svg>