<!-- icon666.com - MILLIONS vector ICONS FREE --><svg viewBox="0 0 64 64" xmlns="http://www.w3.org/2000/svg"><g id="Flat"><g fill="#442015"><path d="m22 16a1 1 0 0 1 -.93-.63l-2-5a1 1 0 0 1 1.86-.74l2 5a1 1 0 0 1 -.56 1.3 1 1 0 0 1 -.37.07z" fill="#442015"></path><path d="m18 12a1 1 0 0 1 -.45-1.89l2-1a1 1 0 0 1 .89 1.79l-2 1a1 1 0 0 1 -.44.1z" fill="#442015"></path><path d="m19 25h26v4h-26z" fill="#442015"></path></g><path d="m9 36h11.8a3.2 3.2 0 0 1 3.2 3.2v2.8a0 0 0 0 1 0 0h-15a0 0 0 0 1 0 0v-6a0 0 0 0 1 0 0z" fill="#284e61"></path><path d="m5 14h4v40h-4z" fill="#75462e" style="fill: rgb(114, 67, 44);"></path><path d="m20 42h4v12h-4z" fill="#75462e" style="fill: rgb(114, 67, 44);"></path><path d="m40 36h15a0 0 0 0 1 0 0v2.8a3.2 3.2 0 0 1 -3.2 3.2h-11.8a0 0 0 0 1 0 0v-6a0 0 0 0 1 0 0z" fill="#284e61" transform="matrix(-1 0 0 -1 95 78)"></path><path d="m55 14h4v40h-4z" fill="#75462e" transform="matrix(-1 0 0 -1 114 68)" style="fill: rgb(114, 67, 44);"></path><path d="m40 42h4v12h-4z" fill="#75462e" transform="matrix(-1 0 0 -1 84 96)" style="fill: rgb(114, 67, 44);"></path><path d="m30 29h4v25h-4z" fill="#75462e" style="fill: rgb(114, 67, 44);"></path><path d="m41.5 15a1 1 0 0 1 -.6-1.8.24.24 0 0 0 .1-.2.26.26 0 0 0 -.1-.21 2.27 2.27 0 0 1 -.9-1.79 2.23 2.23 0 0 1 .9-1.79 1 1 0 1 1 1.2 1.6.24.24 0 0 0 -.1.2.26.26 0 0 0 .1.21 2.27 2.27 0 0 1 .9 1.78 2.23 2.23 0 0 1 -.9 1.79 1 1 0 0 1 -.6.21z" fill="#c4c4c4"></path><path d="m36.5 15a1 1 0 0 1 -.6-1.8.24.24 0 0 0 .1-.2.26.26 0 0 0 -.1-.21 2.27 2.27 0 0 1 -.9-1.79 2.23 2.23 0 0 1 .9-1.79 1 1 0 1 1 1.2 1.6.24.24 0 0 0 -.1.2.26.26 0 0 0 .1.21 2.27 2.27 0 0 1 .9 1.78 2.23 2.23 0 0 1 -.9 1.79 1 1 0 0 1 -.6.21z" fill="#c4c4c4"></path><path d="m35.51 18h7a.51.51 0 0 1 .51.51v2.49a4 4 0 0 1 -4 4 4 4 0 0 1 -4-4v-2.49a.51.51 0 0 1 .51-.51z" fill="#c4c4c4"></path><path d="m25.43 15h-.98-4.45l.88 10h5.25l.87-10z" fill="#75462e" style="fill: rgb(114, 67, 44);"></path></g></svg>