<!-- icon666.com - MILLIONS vector ICONS FREE --><svg viewBox="0 -54 511.99977 511" xmlns="http://www.w3.org/2000/svg"><path d="m69.203125 8.089844h63.304687v201.777344h-63.304687zm0 0" fill="#96502d"></path><path d="m69.203125 8.089844c0 48.796875 63.304687 47.476562 63.304687 0" fill="#f2f2f2"></path><path d="m132.507812 8.089844h153.511719v201.777344h-153.511719zm0 0" fill="#fce06d"></path><path d="m132.507812 72.859375h153.511719v61.027344h-153.511719zm0 0" fill="#ff669c"></path><path d="m342.199219 198.652344c-7.363281 8.304687-17.703125 15.933594-30.425781 22.617187-21.597657 11.347657-45.75 16.953125-70.144532 16.953125h-133.476562c-24.398438 0-48.550782-5.605468-70.148438-16.953125-12.722656-6.683593-23.054687-14.3125-30.414062-22.617187zm0 0" fill="#71cde2"></path><path d="m144.980469 238.222656h-36.828125c-24.398438 0-48.554688-5.605468-70.152344-16.953125-12.71875-6.6875-23.050781-14.320312-30.410156-22.617187h92.324218c3.289063 8.296875 7.925782 15.929687 13.632813 22.617187 9.675781 11.347657 20.503906 16.953125 31.433594 16.953125zm0 0" fill="#3194ad"></path><path d="m213.289062 224.195312c-2.148437 9.257813-3.28125 18.898438-3.28125 28.808594 0 70.195313 56.902344 127.101563 127.097657 127.101563 70.195312 0 127.097656-56.90625 127.097656-127.101563 0-9.910156-1.132813-19.550781-3.28125-28.808594zm0 0" fill="#f2f2f2"></path><path d="m337.105469 380.101562c-70.191407 0-127.097657-56.902343-127.097657-127.09375 0-9.910156 1.132813-19.554687 3.28125-28.8125h70.039063c-.929687 9.257813-1.425781 18.902344-1.425781 28.8125 0 70.191407 24.722656 127.09375 55.203125 127.09375zm0 0" fill="#e6e6e6"></path><path d="m504.410156 356.359375c-7.363281 8.304687-17.703125 15.933594-30.425781 22.621094-21.597656 11.34375-45.75 16.949219-70.144531 16.949219h-133.476563c-24.398437 0-48.550781-5.605469-70.148437-16.953126-12.71875-6.683593-23.054688-14.3125-30.410156-22.613281h334.605468zm0 0" fill="#ff669c"></path><path d="m307.191406 395.929688h-36.828125c-24.398437 0-48.554687-5.605469-70.148437-16.953126-12.722656-6.6875-23.054688-14.316406-30.410156-22.617187h92.324218c3.289063 8.300781 7.921875 15.929687 13.628906 22.617187 9.675782 11.347657 20.503907 16.953126 31.433594 16.953126zm0 0" fill="#bf1932"></path><path d="m167.046875 154.242188c-2.847656-1.921876-6.765625-1.609376-9.304687.6875-2.25 2.03125-3.074219 5.324218-2.042969 8.175781 1.054687 2.917969 3.839843 4.957031 6.953125 5.039062 3.179687.082031 6.113281-1.917969 7.257812-4.863281 1.265625-3.261719.070313-7.109375-2.863281-9.039062zm0 0"></path><path d="m192.265625 172.15625c-1.257813-2.980469-4.316406-4.914062-7.5625-4.664062-2.972656.226562-5.578125 2.203124-6.585937 5.007812-2.367188 6.585938 5.050781 12.625 11.039062 9.070312 3.175781-1.882812 4.550781-6.007812 3.109375-9.414062zm0 0"></path><path d="m260.839844 149.980469c-1.148438-2.867188-4.117188-4.757813-7.191406-4.679688-3.089844.078125-5.925782 2.113281-6.953126 5.03125-1.058593 2.996094-.125 6.398438 2.332032 8.417969 2.542968 2.097656 6.277344 2.277344 9.019531.449219 2.980469-1.984375 4.15625-5.914063 2.792969-9.21875zm0 0"></path><path d="m157.152344 52.679688c1.125 2.804687 3.992187 4.683593 7 4.683593 3.179687 0 6.074218-2.046875 7.148437-5.03125 1.09375-3.035156.078125-6.519531-2.445312-8.515625-2.578125-2.046875-6.339844-2.15625-9.035157-.269531-2.871093 2.011719-4.039062 5.882813-2.667968 9.132813zm0 0"></path><path d="m207.265625 39.492188c1.152344 2.738281 3.835937 4.605468 6.816406 4.679687 3.171875.082031 6.125-1.898437 7.265625-4.855469 1.164063-3.007812.242188-6.554687-2.261718-8.597656-2.503907-2.050781-6.136719-2.265625-8.871094-.542969-3.085938 1.941407-4.339844 5.949219-2.949219 9.316407zm0 0"></path><path d="m237.59375 52.679688c1.234375 2.917968 4.199219 4.835937 7.382812 4.675781 3.171876-.160157 5.960938-2.34375 6.886719-5.378907 2.011719-6.605468-5.527343-12.320312-11.347656-8.597656-3.058594 1.957032-4.308594 5.945313-2.921875 9.300782zm0 0"></path><path d="m511.332031 353.246094c-1.226562-2.722656-3.933593-4.476563-6.921875-4.476563h-72.640625c5.269531-5.21875 10.074219-10.835937 14.382813-16.796875 1.480468.144532 2.953125.222656 4.425781.222656 11.226563 0 22.191406-4.160156 32.144531-12.273437 16.960938-13.824219 29.273438-38.707031 29.273438-59.171875 0-19.128906-11.75-24.820312-16.800782-26.378906-7.640624-2.359375-16.597656-1.019532-24.304687 3.015625-.578125-5.023438-1.4375-10.003907-2.574219-14.90625-.796875-3.441407-3.863281-5.878907-7.394531-5.878907h-61.359375c-4.191406 0-7.589844 3.398438-7.589844 7.59375 0 4.191407 3.398438 7.589844 7.589844 7.589844h55.171875c1.246094 6.972656 1.878906 14.085938 1.878906 21.21875 0 37.628906-17.917969 73.242188-48.03125 95.765625h-142.949219c-30.117187-22.523437-48.03125-58.136719-48.03125-95.765625 0-4.664062.273438-9.320312.808594-13.933594.003906-.035156.011719-.070312.011719-.105468.28125-2.40625.632813-4.804688 1.058594-7.183594h86.613281.027344 63.082031c4.191406 0 7.589844-3.398438 7.589844-7.589844s-3.398438-7.589844-7.589844-7.589844h-35.605469c5.507813-4.09375 10.285156-8.410156 14.277344-12.914062 1.984375-2.234375 2.46875-5.425781 1.246094-8.148438-1.226563-2.726562-3.933594-4.476562-6.921875-4.476562h-48.585938v-182.972656c0-4.191406-3.398437-7.589844-7.589843-7.589844h-216.820313c-4.191406 0-7.589844 3.398438-7.589844 7.589844v94.765625c0 4.191406 3.398438 7.589843 7.589844 7.589843s7.589844-3.398437 7.589844-7.589843v-59.378907c6.652343 5.378907 14.925781 8.304688 23.738281 8.304688 8.652344 0 17.355469-2.910156 24.382812-8.613281v147.894531h-48.121093v-57.847656c0-4.191406-3.398438-7.589844-7.589844-7.589844s-7.589844 3.398438-7.589844 7.589844v57.847656h-54.023437c-2.988282 0-5.695313 1.75-6.921875 4.476562-1.226563 2.722657-.7382815 5.910157 1.242187 8.148438 7.914063 8.925781 18.867188 17.101562 32.5625 24.300781 22.191406 11.660157 47.671875 17.820313 73.679688 17.820313h94.464844c-.128907 2.394531-.199219 4.792968-.199219 7.195312 0 36.148438 14.675781 70.648438 40.023437 95.765625h-72.636718c-2.988282 0-5.695313 1.75-6.921876 4.472657-1.226562 2.722656-.742187 5.914062 1.238282 8.148437 7.910156 8.929687 18.867187 17.105469 32.5625 24.300781 22.191406 11.660156 47.667968 17.824219 73.679687 17.824219h133.476563c26.007812 0 51.484375-6.164063 73.675781-17.820313 13.699219-7.199218 24.65625-15.375 32.574219-24.300781 1.980468-2.234375 2.46875-5.421875 1.242187-8.148437zm-39.578125-97.578125c4.734375-5.375 13.246094-8.558594 18.96875-6.789063 4.042969 1.246094 6.09375 5.242188 6.09375 11.875 0 16.019532-10.179687 36.398438-23.683594 47.402344-5.605468 4.566406-11.40625 7.367188-17.347656 8.398438 9.9375-18.550782 15.539063-39.390626 15.96875-60.886719zm-331.65625-114.191407h138.335938v49.585938h-138.335938zm138.335938-15.179687h-138.335938v-45.851563h138.335938zm0-61.027344h-138.335938v-49.589843h138.335938zm-177.902344-28.664062c-10.171875 0-20.414062-6.542969-23.070312-20.925781h46.742187c-2.8125 14.316406-13.570313 20.925781-23.671875 20.925781zm7.621094 194.027343c-23.558594 0-46.59375-5.5625-66.617188-16.078124-5.046875-2.652344-9.644531-5.429688-13.773437-8.3125h294.257812c-4.128906 2.882812-8.722656 5.65625-13.761719 8.304687-1.453124.757813-2.800781 1.4375-4.089843 2.054687h-90.878907c-3.53125 0-6.597656 2.4375-7.394531 5.878907-.625 2.695312-1.160156 5.414062-1.617187 8.152343zm362.300781 141.625c-20.019531 10.519532-43.054687 16.082032-66.613281 16.082032h-133.476563c-23.558593 0-46.597656-5.5625-66.617187-16.082032-5.042969-2.652343-9.644532-5.425781-13.773438-8.308593h294.261719c-4.132813 2.882812-8.734375 5.660156-13.78125 8.308593zm0 0"></path></svg>